<svg width="411" height="823" viewBox="0 0 411 823" fill="none" xmlns="http://www.w3.org/2000/svg">
<path d="M44.5687 -112.381C46.5017 -115.729 50.7828 -116.876 54.1308 -114.943L591.42 195.261C594.768 197.194 595.915 201.475 593.982 204.823L420.352 505.559C418.131 509.405 412.236 507.114 413.197 502.777C436.706 396.604 347.414 299.418 239.634 313.871L128.256 328.806C27.552 336.707 -70.7317 295.29 -135.409 217.698L-141.287 210.646C-141.516 210.372 -141.549 209.984 -141.371 209.675L44.5687 -112.381Z" fill="#2F80ED" fill-opacity="0.5"/>
<path d="M-120 -70C-120 -73.866 -116.866 -77 -113 -77H436C439.866 -77 443 -73.866 443 -70V230.068C443 233.99 437.491 234.858 436.285 231.126C406.994 140.474 297.095 105.709 220.997 163.023L140.082 223.966C66.0062 273.664 -27.2773 285.204 -111.23 255.057L-119.49 252.091C-119.796 251.981 -120 251.691 -120 251.365V-70Z" fill="#2F80ED"/>
<path d="M458.043 1004.5C457.765 1008.36 454.414 1011.26 450.558 1010.98L-97.022 971.52C-100.878 971.243 -103.779 967.891 -103.501 964.035L-81.9341 664.743C-81.6523 660.832 -76.0951 660.362 -75.1607 664.171C-52.4609 756.694 54.6555 799.268 134.676 747.571L219.762 692.601C297.218 648.356 391.09 643.55 472.659 679.653L480.684 683.205C480.981 683.337 481.164 683.641 481.141 683.965L458.043 1004.5Z" fill="#2F80ED"/>
</svg>
