<svg width="27" height="27" viewBox="0 0 27 27" fill="none" xmlns="http://www.w3.org/2000/svg">
<path d="M19.7068 14.1249C19.6963 12.3267 20.511 10.9714 22.1563 9.97207C21.2361 8.65371 19.8439 7.92861 18.0088 7.78887C16.2712 7.65176 14.3701 8.80137 13.674 8.80137C12.9383 8.80137 11.2561 7.83633 9.93249 7.83633C7.20085 7.87852 4.29782 10.0143 4.29782 14.3596C4.29782 15.6437 4.53249 16.9699 5.00183 18.3357C5.62936 20.134 7.89167 24.5399 10.2515 24.4688C11.4855 24.4397 12.3583 23.5934 13.964 23.5934C15.5223 23.5934 16.3292 24.4688 17.7055 24.4688C20.0865 24.4345 22.1326 20.4293 22.7285 18.6258C19.5354 17.1202 19.7068 14.2172 19.7068 14.1249ZM16.9356 6.08291C18.2724 4.49561 18.1511 3.05068 18.1116 2.53125C16.9303 2.5998 15.5645 3.33545 14.7867 4.23984C13.9298 5.21016 13.4261 6.40986 13.5342 7.7625C14.8104 7.86006 15.9759 7.20352 16.9356 6.08291Z" fill="black"/>
</svg>
