<svg width="60" height="70" viewBox="0 0 60 70" fill="none" xmlns="http://www.w3.org/2000/svg">
<path d="M59.9929 37.2361C59.9929 47.0556 54.1029 55.6111 45.3769 60.2778L46.9039 66.4028C47.1221 67.2778 46.9039 68.1528 46.2495 68.9306C45.595 69.6111 44.7224 70 43.6317 70H36.3237C35.8874 70 35.5601 69.9028 35.1238 69.8056C34.7966 69.9028 34.3603 70 34.0331 70H26.0706C25.6343 70 25.3071 69.9028 24.8708 69.8056C24.5436 69.9028 24.1073 70 23.78 70H16.3629C15.3812 70 14.3996 69.6111 13.7451 68.9306C13.1997 68.1528 12.9816 67.2778 13.1997 66.4028L14.7268 60.2778C5.89172 55.6111 0.00166321 47.0556 0.00166321 37.2361C0.00166321 24.0139 10.9092 12.9306 25.0889 10.8889L26.616 2.52778C26.8341 1.06944 28.2521 0 29.8882 0C31.5244 0 32.8333 1.06944 33.1605 2.52778L34.5785 10.8889C48.9764 12.8333 59.9929 23.9167 59.9929 37.2361ZM43.9589 29.4583H16.0357L21.0532 37.3333H39.0505L43.9589 29.4583ZM31.1971 10.5972L29.8882 2.91667L28.5793 10.5972L27.8158 14.7778H31.9607L31.1971 10.5972ZM34.1422 20.9028L36.6509 16.8194H23.3437L25.8525 20.9028L24.8708 27.5139H35.2329L34.2512 20.9028H34.1422ZM16.3629 67.0833H23.78L24.1073 63.4861L26.3978 39.5694H23.3437L17.7809 61.6389L16.3629 67.0833ZM26.3978 63.7778L26.0706 67.0833H34.0331L33.7059 63.7778L31.3062 39.5694H28.6884L26.3978 63.7778ZM36.3237 67.0833H43.6317L42.3228 61.6389L36.6509 39.5694H33.7059L35.9964 63.4861L36.3237 67.0833Z" fill="#2F80ED" fill-opacity="0.7"/>
</svg>
