<svg width="27" height="27" viewBox="0 0 27 27" fill="none" xmlns="http://www.w3.org/2000/svg">
<g clip-path="url(#clip0_21_17)">
<rect width="27" height="27" fill="white"/>
<path d="M25.5098 27.0001C26.3327 27.0001 27 26.3329 27 25.5099V1.49017C27 0.66709 26.3327 0 25.5098 0H1.49014C0.666954 0 -3.05176e-05 0.66709 -3.05176e-05 1.49017V25.5099C-3.05176e-05 26.3329 0.666954 27.0001 1.49014 27.0001H25.5098Z" fill="#395185"/>
<path d="M18.6294 27.0001V16.5442H22.1391L22.6646 12.4695H18.6294V9.86775C18.6294 8.68798 18.9571 7.88399 20.6489 7.88399L22.8067 7.88304V4.23857C22.4334 4.18889 21.1526 4.07794 19.6625 4.07794C16.5514 4.07794 14.4215 5.97691 14.4215 9.46434V12.4695H10.9029V16.5442H14.4215V27.0001H18.6294Z" fill="white"/>
</g>
<defs>
<clipPath id="clip0_21_17">
<rect width="27" height="27" fill="white"/>
</clipPath>
</defs>
</svg>
